<svg width="120" height="30" viewBox="0 0 120 30" fill="none" xmlns="http://www.w3.org/2000/svg">
<g clip-path="url(#clip0_20_122)">
<path d="M90.6402 14.8205C90.6395 17.3411 91.3033 19.8022 92.5654 21.9715L90.5195 29.3834L98.1639 27.3946C100.278 28.5367 102.647 29.1351 105.055 29.1353H105.061C113.008 29.1353 119.477 22.7186 119.48 14.8318C119.482 11.01 117.983 7.41631 115.261 4.71258C112.538 2.0091 108.918 0.519444 105.06 0.5177C97.1123 0.5177 90.6436 6.93398 90.6404 14.8205" fill="url(#paint0_linear_20_122)"/>
<path d="M90.1254 14.8158C90.1246 17.4271 90.8121 19.9763 92.1192 22.2233L90 29.9008L97.9185 27.8407C100.1 29.021 102.557 29.6434 105.056 29.6443H105.063C113.295 29.6443 119.996 22.9969 120 14.8277C120.001 10.8686 118.449 7.1457 115.629 4.34512C112.809 1.54488 109.059 0.00162791 105.063 0C96.8292 0 90.1287 6.64651 90.1254 14.8158ZM94.841 21.8363L94.5454 21.3706C93.3025 19.4097 92.6464 17.1436 92.6474 14.8167C92.6501 8.02663 98.2193 2.50233 105.068 2.50233C108.384 2.50372 111.501 3.78651 113.845 6.11395C116.189 8.44163 117.479 11.5358 117.478 14.8267C117.475 21.6169 111.906 27.1419 105.063 27.1419H105.058C102.83 27.1407 100.645 26.547 98.7389 25.425L98.2854 25.1581L93.5864 26.3806L94.841 21.8362V21.8363Z" fill="url(#paint1_linear_20_122)"/>
<path d="M101.329 8.62189C101.05 8.00526 100.755 7.99282 100.49 7.982C100.272 7.9727 100.023 7.9734 99.7742 7.9734C99.5253 7.9734 99.1209 8.06631 98.7791 8.43666C98.4369 8.80735 97.4727 9.70317 97.4727 11.5251C97.4727 13.3472 98.8101 15.1081 98.9966 15.3554C99.1832 15.6022 101.579 19.4608 105.372 20.9453C108.525 22.1789 109.167 21.9335 109.851 21.8717C110.535 21.81 112.059 20.9761 112.37 20.1113C112.681 19.2467 112.681 18.5055 112.588 18.3506C112.495 18.1963 112.246 18.1036 111.872 17.9185C111.499 17.7333 109.664 16.8374 109.322 16.7137C108.98 16.5903 108.731 16.5286 108.482 16.8994C108.233 17.2697 107.519 18.1036 107.301 18.3506C107.083 18.5982 106.865 18.629 106.492 18.4437C106.119 18.2579 104.917 17.8674 103.491 16.6058C102.381 15.6242 101.632 14.412 101.414 14.0412C101.197 13.671 101.391 13.4703 101.578 13.2857C101.746 13.1198 101.951 12.8533 102.138 12.6371C102.324 12.4208 102.386 12.2665 102.511 12.0196C102.635 11.7724 102.573 11.5561 102.48 11.3708C102.386 11.1856 101.661 9.3541 101.329 8.62189Z" fill="white"/>
</g>
<g clip-path="url(#clip1_20_122)">
<path d="M60 0C56.0227 0 52.2047 1.58133 49.3945 4.39336C46.5815 7.20651 45.0008 11.0217 45 15C45 18.9766 46.582 22.7946 49.3945 25.6066C52.2047 28.4187 56.0227 30 60 30C63.9773 30 67.7953 28.4187 70.6055 25.6066C73.418 22.7946 75 18.9766 75 15C75 11.0234 73.418 7.20539 70.6055 4.39336C67.7953 1.58133 63.9773 0 60 0Z" fill="url(#paint2_linear_20_122)"/>
<path d="M51.7896 14.8416C56.163 12.9366 59.0786 11.6805 60.5364 11.0737C64.7036 9.34101 65.5685 9.04007 66.1333 9.02987C66.2575 9.02788 66.5341 9.05858 66.7146 9.20448C66.8646 9.32753 66.9067 9.49394 66.9278 9.61077C66.9466 9.72749 66.9724 9.99351 66.9513 10.2012C66.7263 12.573 65.7489 18.3288 65.2521 20.9855C65.0435 22.1095 64.6286 22.4864 64.2278 22.5232C63.356 22.6033 62.695 21.9476 61.8513 21.3947C60.5317 20.5291 59.7864 19.9905 58.5044 19.1461C57.0232 18.1701 57.9841 17.6337 58.8278 16.7571C59.0482 16.5276 62.8872 13.0366 62.9599 12.72C62.9692 12.6804 62.9786 12.5327 62.8896 12.4549C62.8028 12.3769 62.6739 12.4036 62.5802 12.4247C62.4466 12.4547 60.3396 13.8487 56.2521 16.6066C55.6544 17.0177 55.113 17.2181 54.6255 17.2076C54.0911 17.1961 53.0599 16.9048 52.2935 16.6559C51.356 16.3505 50.6083 16.189 50.6739 15.6703C50.7067 15.4003 51.0794 15.124 51.7896 14.8416Z" fill="white"/>
</g>
<g clip-path="url(#clip2_20_122)">
<path d="M30 25.8333C30 28.1667 28.1667 30 25.8333 30H4.16667C1.83333 30 0 28.1667 0 25.8333V4.16667C0 1.83333 1.83333 0 4.16667 0H25.8333C28.1667 0 30 1.83333 30 4.16667V25.8333Z" fill="#FF9800"/>
<path d="M16.8174 18.75C17.7549 18.5625 18.6299 18.1875 19.3799 17.6875C20.0049 17.3125 20.1924 16.5 19.8174 15.875C19.4424 15.25 18.6299 15.0625 18.0049 15.4375C16.1924 16.5625 13.8174 16.5625 12.0049 15.4375C11.3799 15.0625 10.5674 15.25 10.1924 15.875C9.81741 16.5 10.0049 17.3125 10.6299 17.6875C11.4424 18.1875 12.3174 18.5625 13.1924 18.75L10.6924 21.25C10.1924 21.75 10.1924 22.5625 10.6924 23.125C10.9424 23.375 11.2549 23.5 11.6299 23.5C11.9424 23.5 12.3174 23.375 12.5674 23.125L15.0049 20.6875L17.4424 23.125C17.9424 23.625 18.7549 23.625 19.3174 23.125C19.8174 22.625 19.8174 21.8125 19.3174 21.25L16.8174 18.75ZM15.0049 6C12.5674 6 10.6299 7.9375 10.6299 10.375C10.6299 12.8125 12.5674 14.75 15.0049 14.75C17.4424 14.75 19.3799 12.8125 19.3799 10.375C19.3799 7.9375 17.4424 6 15.0049 6ZM15.0049 12.25C13.9424 12.25 13.1299 11.4375 13.1299 10.375C13.1299 9.3125 13.9424 8.5 15.0049 8.5C16.0674 8.5 16.8799 9.3125 16.8799 10.375C16.8799 11.4375 16.0674 12.25 15.0049 12.25Z" fill="white"/>
</g>
<defs>
<linearGradient id="paint0_linear_20_122" x1="1538.56" y1="2887.09" x2="1538.56" y2="0.5177" gradientUnits="userSpaceOnUse">
<stop stop-color="#1FAF38"/>
<stop offset="1" stop-color="#60D669"/>
</linearGradient>
<linearGradient id="paint1_linear_20_122" x1="1590" y1="2990.08" x2="1590" y2="0" gradientUnits="userSpaceOnUse">
<stop stop-color="#F9F9F9"/>
<stop offset="1" stop-color="white"/>
</linearGradient>
<linearGradient id="paint2_linear_20_122" x1="1545" y1="0" x2="1545" y2="3000" gradientUnits="userSpaceOnUse">
<stop stop-color="#2AABEE"/>
<stop offset="1" stop-color="#229ED9"/>
</linearGradient>
<clipPath id="clip0_20_122">
<rect width="30" height="30" fill="white" transform="translate(90)"/>
</clipPath>
<clipPath id="clip1_20_122">
<rect width="30" height="30" fill="white" transform="translate(45)"/>
</clipPath>
<clipPath id="clip2_20_122">
<rect width="30" height="30" fill="white"/>
</clipPath>
</defs>
</svg>
